<?xml version="1.0" encoding="utf-8"?>
<!-- Generator: Adobe Illustrator 22.0.1, SVG Export Plug-In . SVG Version: 6.00 Build 0)  -->
<svg version="1.1" id="logo" xmlns="http://www.w3.org/2000/svg" xmlns:xlink="http://www.w3.org/1999/xlink" x="0px" y="0px"
	 viewBox="0 0 250 100" style="enable-background:new 0 0 250 100;" xml:space="preserve">
<style type="text/css">
	.st0{fill:#FFFFFF;}
	.st1{fill:#FFE100;}
</style>
<polygon class="st0" points="93.5,84.9 87.9,76.2 87.9,84.9 84.3,84.9 84.3,69.7 87.9,69.7 93.4,78.3 93.4,69.7 96.9,69.7 
	96.9,84.9 "/>
<path class="st0" d="M112.1,84.9l-1.4-3.7h-4.2l-1.3,3.7h-3.9l5.8-15.2h3l5.9,15.2H112.1z M109.4,77.8l-0.8-2.2l-0.8,2.2L109.4,77.8
	z"/>
<rect x="120.3" y="69.7" class="st0" width="3.5" height="15.2"/>
<polygon class="st0" points="130.3,84.9 130.3,69.7 133.8,69.7 133.8,81.5 139.1,81.5 139.1,84.9 "/>
<path class="st0" d="M157.8,85.1c-0.1,0-0.3,0-0.4,0c-0.1,0-0.2,0-0.4,0h-0.1l-1-0.2c-0.4-0.1-0.7-0.2-1.1-0.3
	c-0.3-0.1-0.6-0.2-0.9-0.4l-0.4-0.3v-4.6l1.7,1.4c0.2,0.1,0.3,0.3,0.5,0.4c0.3,0.1,0.5,0.2,0.8,0.3c0.3,0.1,0.6,0.2,0.9,0.2
	c0.2,0,0.5,0.1,0.7,0.1c0.1,0,0.2,0,0.2,0c0.5,0,0.9-0.1,1.3-0.4c0.1-0.1,0.3-0.4,0.2-0.6c0-0.2,0-0.4-0.1-0.5
	c-0.1-0.2-0.2-0.3-0.4-0.4c-0.3-0.2-0.5-0.4-0.8-0.5l-1.2-0.6c-0.5-0.3-0.9-0.5-1.3-0.7c-0.4-0.3-0.8-0.6-1.2-0.9
	c-0.4-0.4-0.7-0.8-0.9-1.3c-0.2-0.5-0.4-1.1-0.3-1.7c0-0.7,0.2-1.4,0.5-2c0.3-0.6,0.8-1.1,1.3-1.4c0.6-0.4,1.2-0.6,1.8-0.8
	c0.6-0.2,1.3-0.2,1.9-0.2c0.1,0,0.3,0,0.4,0c1,0,1.9,0.2,2.8,0.6l0.6,0.3v4.2l-1.5-1c-0.7-0.4-1.4-0.7-2.2-0.7l-0.2,0
	c-0.3,0-0.6,0-0.8,0.1c-0.2,0-0.4,0.1-0.6,0.2c-0.1,0.1-0.2,0.2-0.3,0.3c-0.1,0.1-0.1,0.2-0.1,0.3c0,0.2,0,0.3,0.1,0.5
	c0.1,0.1,0.2,0.2,0.3,0.3c0.2,0.2,0.5,0.4,0.7,0.5l1.2,0.6c0.5,0.3,1,0.5,1.4,0.8c0.5,0.3,0.9,0.6,1.3,1c0.4,0.4,0.7,0.9,0.9,1.4
	c0.3,0.5,0.4,1.1,0.4,1.8c0,0.7-0.1,1.4-0.5,2.1c-0.3,0.6-0.8,1.1-1.3,1.5c-0.6,0.4-1.2,0.6-1.8,0.8C159.1,85,158.5,85.1,157.8,85.1
	L157.8,85.1z"/>
<path class="st0" d="M177.8,84.9l-1.4-3.7h-4.2l-1.3,3.7H167l5.8-15.2h3l5.8,15.2H177.8z M175.1,77.8l-0.8-2.3l-0.8,2.3L175.1,77.8z
	"/>
<polygon class="st0" points="186.1,84.9 186.1,69.7 189.6,69.7 189.6,81.5 194.9,81.5 194.9,84.9 "/>
<path class="st0" d="M205.5,85.1c0,0-0.1,0-0.2,0c-1.9,0-3.7-0.8-5-2.2c-1.4-1.6-2-3.5-1.9-5.5c-0.1-2,0.6-4.1,2-5.7
	c1.3-1.4,3.2-2.3,5.1-2.3c0.1,0,0.2,0,0.3,0c0,0,0.1,0,0.2,0c1.9,0,3.6,0.8,4.9,2.1c1.3,1.6,2,3.5,1.9,5.5c0.1,2-0.6,4.1-1.9,5.7
	c-1.3,1.4-3.2,2.3-5.1,2.3C205.8,85.1,205.6,85.1,205.5,85.1z M205.5,72.8c-1,0-1.9,0.4-2.5,1.1c-1.4,1.9-1.4,4.6,0,6.6
	c0.6,0.7,1.4,1.1,2.4,1.1l0.3,0c0.9,0,1.8-0.4,2.5-1.1c0.7-0.9,1.1-2.1,1-3.3l0-0.1l0-0.1c0.1-1.2-0.3-2.4-1-3.3
	c-0.6-0.6-1.4-1-2.4-1L205.5,72.8z"/>
<polygon class="st0" points="227.5,84.9 221.9,76.1 221.9,84.9 218.3,84.9 218.3,69.7 221.9,69.7 227.4,78.3 227.4,69.7 231,69.7 
	231,84.9 "/>
<path class="st0" d="M103.9,53.4l0.9,0c1,0,2-0.3,2.8-1c0.3-0.3,0.9-1.2,1.7-4.1l3.5-13.8c0.1-0.3,0.1-0.6,0.2-1c0,0-0.1,0-0.1,0
	c-0.1,0-0.1,0-0.2,0l-1.6,0.4l0.8-3.5l0.7-0.1c1.9-0.1,3.8-0.5,5.7-0.9l1.5-0.4c-0.3,0-0.6-0.1-0.9-0.1c-0.1,0-0.3,0-0.4,0
	c-2.8,0-5.4,0.7-7.8,2c-2.3,1.2-4.2,2.9-5.6,5c-1.3,1.8-2,3.9-2,6c0,0.5,0.1,0.9,0.2,1.4c0.1,0.4,0.3,0.8,0.5,1.1
	c0.3,0.3,0.6,0.6,1,0.8c0.6,0.4,1.1,0.8,1.6,1.3l0,0l0,0c0.3,0.4,0.5,0.9,0.4,1.5c0,0.6-0.2,1.1-0.7,1.6c-0.4,0.4-1,0.7-1.6,0.7
	c-1.2,0-2.4-0.8-3.6-2.4c-1.1-1.6-1.6-3.5-1.6-5.5c0-2.9,0.9-5.8,2.5-8.2c1.8-2.7,4.2-4.9,7.1-6.3c3-1.5,6.4-2.4,9.8-2.4l0.2,0
	c3,0,5.4,0.6,7.1,1.9c1.6,1.1,2.6,2.9,2.6,4.9c0,1.8-0.6,3.5-1.7,4.8c-0.7,0.8-1.5,1.5-2.4,2c0.3,0.1,0.6,0.3,0.9,0.5
	c0.9,0.6,1.7,1.4,2.2,2.4c0.5,1,0.8,2.1,0.8,3.3c0,1.9-0.6,3.8-1.7,5.4c-1.2,1.8-2.9,3.2-4.8,4.1c-2,1-4.2,1.6-6.5,1.6
	c-0.7,0-2.1-0.1-4.1-0.2c-0.9-0.1-1.9-0.1-2.9-0.1l-0.2,0c-1.3,0-2.6,0.1-3.9,0.4l-1.6,0.3L103.9,53.4z M113.1,53
	c0.6,0.1,1.3,0.2,2,0.2c0.2,0,0.3,0,0.5,0c1.9,0,3.8-0.8,5-2.3c1.2-1.4,1.9-3.2,1.9-5c0-0.8-0.2-1.5-0.6-2.1
	c-0.4-0.5-0.9-0.9-1.6-1.2c-1.2-0.3-2.4-0.4-3.7-0.4c0,0-0.1,0-0.1,0l-1,4.1c-0.5,2-1.1,3.9-1.8,5.8C113.4,52.4,113.3,52.7,113.1,53
	z M119.5,30.9c-0.5,1.6-0.9,2.9-1.2,3.9l-1,3.9c1.9-0.2,3.3-0.8,4.3-1.7c1.2-1.1,1.8-2.7,1.8-4.3c0-1-0.4-1.9-1.1-2.5
	c-0.7-0.5-1.4-0.8-2.3-0.9L119.5,30.9z"/>
<path class="st0" d="M133.4,57c-1.2,0-2.4-0.6-3.2-1.5l0,0l0,0c-0.8-1.3-1.2-2.7-1-4.2c0.1-3.7,1.2-7.4,3.2-10.6
	c2.5-4.1,5.5-6.2,9.1-6.2l0.1,0c1.1,0,2.2,0.4,3.1,1.2c0.9,0.8,1.3,2,1.2,3.1c0,1.3-0.5,2.5-1.3,3.6c-1.2,1.4-2.5,2.5-4.1,3.4
	c-0.7,0.4-2.3,1.2-5.4,2.6c-0.1,0.6-0.1,1.2-0.1,1.7c-0.1,0.7,0.1,1.2,0.3,1.7c0.2,0.2,0.4,0.3,0.6,0.3c0.7,0,1.3-0.2,1.8-0.4
	c1.5-0.8,3-1.8,4.4-2.9l0.8-0.6l2,2.5l-0.7,0.6c-4.1,3.9-7.6,5.8-10.6,5.8C133.6,57,133.5,57,133.4,57z M139.6,38.4
	c-0.4,0-0.8,0.2-1.1,0.4c-0.7,0.6-1.3,1.4-1.6,2.3c-0.4,1-0.8,2.1-1.1,3.2c1.3-0.7,2.5-1.6,3.6-2.6c0.6-0.5,0.9-1.3,1-2.1
	c0-0.3-0.1-0.7-0.3-0.9C140.1,38.5,139.9,38.4,139.6,38.4l0-1L139.6,38.4z"/>
<path class="st0" d="M157.5,57.1c-0.5,0-1-0.2-1.5-0.5l-0.1-0.1c-0.4-0.4-0.6-1-0.6-1.6c0-0.2,0-0.5,0.1-0.7
	c-0.7,0.6-1.5,1.1-2.3,1.6c-1,0.7-2.3,1.2-3.6,1.2l-0.2,0c-1.1,0-2.1-0.5-2.8-1.4c-0.8-1.2-1.3-2.6-1.2-4c0.1-2.1,0.5-4.1,1.4-6
	c0.9-2.1,2.2-4.1,3.7-5.8c1.4-1.6,3.1-2.9,5-3.9c1.6-0.7,3.3-1,5-1c0.1,0,0.3,0,0.4,0c0.3,0,0.6,0,1,0l0.5-0.8l3.6-0.8l-2.2,7.6
	c-0.7,2.4-1.4,5.1-2,8.2c-0.2,0.9-0.4,1.7-0.5,2.6c0.1,0,0.1-0.1,0.2-0.1c1-0.6,1.9-1.3,2.7-2.1l0.8-0.8l2,2.5l-0.7,0.6
	c-1.8,1.7-3,2.7-3.6,3.1c-0.9,0.7-2,1.2-3,1.6c-0.6,0.3-1.4,0.4-2.1,0.5L157.5,57.1z M157.8,39.4c-1.1,0-2.1,0.3-3,1
	c-1.1,1-2.1,2.3-2.7,3.8c-0.8,1.8-1.3,3.8-1.3,5.7c-0.1,0.7,0.1,1.3,0.4,1.8c0.1,0.1,0.3,0.2,0.5,0.2c1-0.1,2.1-0.6,2.8-1.4
	c1.3-1.3,2.1-2.9,2.5-4.6l1.8-6.3C158.5,39.5,158.2,39.4,157.8,39.4L157.8,39.4z"/>
<path class="st0" d="M180.7,57.2c-0.8,0-1.5-0.3-2-0.9c-0.6-0.7-0.8-1.5-0.8-2.4c0-0.1,0-0.2,0-0.4c-1,0.8-2.1,1.6-3.2,2.2
	c-1.2,0.8-2.6,1.2-4,1.3l-0.2,0c-0.8,0-1.5-0.3-2-0.9l0,0l0,0c-0.5-0.7-0.7-1.5-0.6-2.4c0-0.7,0.1-1.4,0.2-2.1c0.2-1,0.7-3,1.6-6.1
	c0.6-2,1.1-3.9,1.4-5.9c-0.8,0.6-1.6,1.2-2.3,2l-0.6,0.6l-2.6-2.1l0.8-0.8c1.5-1.5,3.2-2.8,5-3.9c0.9-0.6,2-0.9,3.1-1l0.1,0
	c0.6,0,1.3,0.3,1.7,0.8c0.4,0.6,0.6,1.3,0.6,2c-0.3,2.8-0.9,5.6-1.7,8.2c-0.6,2.1-1.1,4.2-1.4,6.3c0,0.1,0,0.1,0.1,0.1c0,0,0,0,0,0
	c0.3,0,1.1-0.2,3-1.9c1.4-1.2,2.4-2.8,2.9-4.5l2.8-10.4h5.4l-2.6,9.5c-0.8,2.5-1.4,5.1-1.9,7.7c1-0.8,1.9-1.6,2.8-2.5l0.7-0.8
	l2.1,2.4l-0.6,0.7C185,55.6,182.5,57.2,180.7,57.2L180.7,57.2z"/>
<path class="st0" d="M192.8,57c-0.8,0-1.6-0.4-2.1-1c-0.6-0.9-0.8-1.8-0.7-2.8c0.1-1.8,0.4-3.6,0.9-5.4l2.1-8.1h-3.8l0.9-3.7h3.8
	l1.3-4.9l6.1-2.3l-1.9,7.2h4.9l-0.8,3.7h-4.9l-1.9,7.2c-0.5,1.6-0.8,3.2-1,4.8c0,0,0,0.1,0,0.1c0.6-0.1,1.2-0.3,1.7-0.7
	c1.3-0.8,2.6-1.6,3.7-2.6l0.8-0.6l2.1,2.6l-0.8,0.6c-2.2,1.8-4.6,3.4-7,4.9c-1,0.6-2.1,0.9-3.2,1L192.8,57z"/>
<path class="st0" d="M202.4,68.8c-0.9,0-1.8-0.3-2.6-0.7c-0.8-0.5-1.2-1.3-1.3-2.2c0-0.8,0.4-1.6,1-2c0.6-0.5,1.4-0.7,2.1-0.7
	c0.1,0,0.1,0,0.2,0c0.8,0,1.6,0.1,2.4,0.3c0.6,0.1,1.2,0.2,1.8,0.3c0.9-0.1,1.7-0.4,2.4-1c1.4-1,2.5-2.3,3.3-3.7
	c0.8-1.3,1.1-2.7,1.2-4.2c-0.1-2.5-0.4-5.1-1-7.7c-0.4-2.4-1.3-4.7-2.6-6.7c-0.2-0.4-0.6-0.7-1-0.8c-1,0.2-1.9,0.6-2.7,1.3l-0.9,0.7
	l-1.9-2.8l2.4-1.8c1.2-0.9,2.4-1.6,3.7-2.3c0.5-0.3,1-0.4,1.5-0.4c0.8,0,1.5,0.4,1.9,1c1.6,2.2,2.9,4.7,3.6,7.3
	c0.7,2.1,1.2,4.3,1.3,6.6c1.4-3.1,2.1-5.7,2.1-7.7c0-0.7-0.1-1.4-0.4-2.1c-0.2-0.8-0.4-1.7-0.5-2.6c0-0.7,0.2-1.4,0.7-1.9
	c0.5-0.5,1.1-0.8,1.8-0.8c0.9,0,1.7,0.4,2.2,1c0.5,0.7,0.8,1.6,0.7,2.5c-0.1,2.7-0.6,5.3-1.5,7.9c-1.1,3.5-2.6,6.8-4.5,10
	c-1.5,2.8-3.3,5.5-5.5,8c-1.5,1.6-3.2,2.9-5.1,3.9c-1.5,0.8-3.1,1.2-4.8,1.2C202.6,68.8,202.5,68.8,202.4,68.8z"/>
<path class="st0" d="M68.3,88c-1.6-1-3.5-2-5.2-2.9c-2.4-1.3-3.9-2.1-4.7-2.8c-3,1.8-6.3,3.2-9.7,4.2l-2.4,0.6l1.3-2.1
	c0-0.1,4.4-8.5-15.7-27l0,0l0,0c-8.3-9.8-14.1-18-12.4-33.9l0.1-1l1,0.2c1.4,0.2,2.9,0.3,4.3,0.3c1.1,0,2.2-0.1,3.4-0.2
	c-0.3-2.5-1.1-9-0.5-12l0.2-0.8l2,0c13.3,0,22.9,5.9,28.8,17.6c4.7-7.8,10.6-17.2,29-17.6l0.9,0l0.1,0.9c0.5,5.3,0.5,10.2,0.2,12.7
	c2.6-0.3,5.2-0.9,7.7-1.6l1-0.3l0.2,1c0.1,0.5,3.2,13.6-6.5,27.9l0,0.1l0,0c-1.3,1.5-2.8,3.1-4.4,4.8c-8.4,9-20,21.3-16.9,30.8
	l0.9,2.6L68.3,88z M31.7,33.9c-0.6,4.3,0.1,10.4,7.3,19.3c8.8,11,15.1,19.5,14.7,25.9c0.7-0.5,1.4-1.3,1.9-2.5c1-2.6,0.2-6-2.3-10.2
	C48.3,60.1,35.6,42.9,31.7,33.9z M64.5,66.4c-2.5,4.2-3.3,7.6-2.3,10.2c0.4,1.2,1.2,2,1.9,2.5c-0.4-6.4,5.9-14.9,14.7-25.9
	c7.2-9,7.8-15,7.3-19.3C82,42.9,69.4,60.1,64.5,66.4z M44,36.1c4.1,6,12,18.2,14.8,26.2c2.7-6.9,9-18.5,14.1-25.3
	c-5,3-10.2,6.8-12.6,12.7l-0.7,1.8l-1-1.6C55.1,44.4,49.2,39.4,44,36.1z M38.3,17.6c-0.4,9.3,2,10.1,4.2,10.7
	c0.6,0.2,1.1,0.3,1.7,0.6c2,1,7.9,5.6,11.2,8.2c-3.3-13.1-10.6-16.5-15.1-18.6C39.5,18.2,38.9,17.9,38.3,17.6z M78.3,17.6
	c-0.6,0.3-1.2,0.6-2,1c-4.5,2.1-11.8,5.5-15,18.6c3.3-2.6,9.1-7.2,11.2-8.2c0.5-0.3,1.1-0.5,1.7-0.6C76.3,27.7,78.7,26.9,78.3,17.6z
	"/>
<title>logo</title>
<path d="M94.4,80c0,0.6,0,1.3,0.1,1.9l0,0c-0.1-0.2-0.3-0.4-0.5-0.9l-6.6-10.3h-2v13.2h1.6v-9.5c0-0.6,0-1.2-0.1-1.8h0.1
	c0.1,0.3,0.3,0.6,0.4,0.8L94,83.9h1.9V70.7h-1.5V80z"/>
<path d="M107.8,70.7l-5.1,13.2h1.7l1.3-3.7h5.6l1.4,3.7h1.7l-5.1-13.2H107.8z M106.3,78.8l2-5.6c0.1-0.3,0.2-0.6,0.2-0.9l0,0
	c0,0.3,0.1,0.6,0.2,0.9l2.1,5.6L106.3,78.8z"/>
<rect x="121.3" y="70.7" width="1.5" height="13.2"/>
<polygon points="132.8,70.7 131.3,70.7 131.3,83.9 138.1,83.9 138.1,82.5 132.8,82.5 "/>
<path d="M161.4,78.2c-0.3-0.3-0.7-0.6-1.1-0.9c-0.4-0.3-0.9-0.5-1.3-0.7l-1.2-0.6c-0.3-0.2-0.6-0.4-0.9-0.6
	c-0.2-0.2-0.4-0.4-0.6-0.7c-0.1-0.3-0.2-0.6-0.2-0.9c0-0.3,0.1-0.6,0.3-0.9c0.2-0.3,0.4-0.5,0.6-0.6c0.3-0.2,0.6-0.3,0.9-0.3
	c0.3-0.1,0.7-0.1,1-0.1c1.1,0,2.1,0.2,3,0.8v-1.7c-0.9-0.4-1.9-0.5-2.8-0.5c-0.6,0-1.1,0.1-1.7,0.2c-0.5,0.1-1,0.3-1.5,0.6
	c-0.4,0.3-0.8,0.7-1,1.1c-0.3,0.5-0.4,1-0.4,1.6c0,0.4,0.1,0.9,0.3,1.3c0.2,0.4,0.4,0.7,0.7,1c0.3,0.3,0.6,0.6,1,0.8
	c0.4,0.2,0.8,0.5,1.3,0.7l1.2,0.6c0.4,0.2,0.7,0.4,1,0.6c0.3,0.2,0.5,0.4,0.6,0.7c0.2,0.3,0.2,0.6,0.2,0.9c0,0.6-0.2,1.2-0.7,1.5
	c-0.6,0.4-1.4,0.6-2.1,0.5c-0.3,0-0.6,0-0.9-0.1c-0.3-0.1-0.7-0.1-1-0.2c-0.3-0.1-0.6-0.2-0.9-0.4c-0.3-0.1-0.5-0.3-0.8-0.5v1.8
	c0.2,0.1,0.4,0.2,0.7,0.3c0.3,0.1,0.6,0.2,0.9,0.2l0.9,0.2c0.3,0,0.6,0.1,0.8,0.1c0.6,0,1.2-0.1,1.8-0.2c0.5-0.1,1-0.3,1.5-0.6
	c0.4-0.3,0.8-0.7,1-1.1c0.3-0.5,0.4-1.1,0.4-1.7c0-0.5-0.1-0.9-0.3-1.3C162,78.9,161.7,78.5,161.4,78.2z"/>
<path d="M173.5,70.7l-5.1,13.2h1.7l1.3-3.7h5.6l1.4,3.7h1.7l-5.1-13.2H173.5z M172,78.8l2.1-5.6c0.1-0.3,0.2-0.6,0.2-0.9l0,0
	c0,0.3,0.1,0.6,0.2,0.9l2.1,5.6L172,78.8z"/>
<polygon points="188.6,70.7 187.1,70.7 187.1,83.9 193.9,83.9 193.9,82.5 188.6,82.5 "/>
<path d="M205.7,70.5c-1.8-0.1-3.5,0.6-4.7,1.9c-1.2,1.4-1.8,3.2-1.7,5.1c-0.1,1.8,0.5,3.5,1.7,4.8c1.2,1.2,2.8,1.9,4.5,1.8
	c1.7,0.1,3.4-0.6,4.6-1.9c1.2-1.4,1.8-3.2,1.7-5.1c0.1-1.8-0.5-3.5-1.7-4.8C209,71.1,207.4,70.4,205.7,70.5z M208.9,81.3
	c-0.9,1-2.1,1.5-3.4,1.4c-1.3,0-2.5-0.5-3.3-1.5c-1.7-2.3-1.7-5.5,0-7.9c0.8-1,2.1-1.5,3.4-1.5c1.3-0.1,2.5,0.5,3.4,1.4
	c0.9,1.1,1.3,2.6,1.2,4C210.3,78.7,209.8,80.1,208.9,81.3z"/>
<path d="M228.4,70.7V80c0,0.6,0,1.3,0.1,1.9l0,0c-0.1-0.2-0.3-0.4-0.5-0.9l-6.6-10.3h-2v13.2h1.6v-9.5c0-0.6,0-1.2-0.1-1.8h0.1
	c0.1,0.3,0.3,0.6,0.4,0.8l6.8,10.5h1.9V70.7H228.4z"/>
<path d="M126.3,36.7c1-1.2,1.5-2.7,1.5-4.2c0-1.6-0.8-3.2-2.2-4.1c-1.5-1.1-3.6-1.7-6.5-1.7c-3.3,0-6.6,0.7-9.6,2.3
	c-2.7,1.4-5.1,3.4-6.7,6c-1.5,2.3-2.4,5-2.4,7.7c-0.1,1.7,0.4,3.4,1.4,4.8c0.9,1.3,1.8,2,2.7,2c0.3,0,0.7-0.1,0.9-0.4
	c0.2-0.2,0.4-0.5,0.4-0.9c0-0.3-0.1-0.6-0.3-0.9c-0.4-0.4-0.8-0.8-1.3-1.1c-0.5-0.3-0.9-0.6-1.3-1c-0.3-0.4-0.6-0.9-0.7-1.4
	c-0.2-0.6-0.3-1.1-0.3-1.7c0.1-2.4,0.8-4.6,2.2-6.6c1.5-2.3,3.6-4.1,6-5.3c2.5-1.4,5.3-2.1,8.2-2.1c1.6-0.1,3.2,0.3,4.6,1.2
	c1,0.8,1.6,2,1.5,3.2c0,1.9-0.7,3.7-2.1,5c-1.4,1.4-3.5,2.1-6.3,2.1l1.3-5.3c0.3-1,0.7-2.3,1.2-3.9c-1.9,0.5-3.9,0.8-5.8,0.9
	l-0.3,1.2c0.2,0,0.3-0.1,0.5-0.1c0.3,0,0.5,0.1,0.8,0.3c0.2,0.2,0.3,0.4,0.3,0.6c0,0.4-0.1,0.9-0.2,1.3l-3.5,13.8
	c-0.6,2.4-1.3,3.9-2,4.6c-1,0.8-2.3,1.2-3.5,1.2l-0.4,1.3c1.4-0.3,2.9-0.4,4.3-0.4c1,0,2.1,0,3,0.1c2,0.1,3.3,0.2,4,0.2
	c2.1,0,4.2-0.5,6.1-1.5c1.8-0.9,3.3-2.2,4.4-3.8c1-1.4,1.5-3.1,1.5-4.8c0-1-0.2-1.9-0.7-2.8c-0.4-0.8-1.1-1.5-1.8-2
	c-1-0.6-2.1-1-3.3-1.1C123.6,39.1,125.1,38.1,126.3,36.7z M122.6,43.2c0.5,0.8,0.8,1.7,0.8,2.7c0,2.1-0.8,4.1-2.1,5.7
	c-1.6,1.8-3.9,2.8-6.3,2.6c-1.2,0-2.5-0.2-3.7-0.5c0.6-0.6,1-1.3,1.3-2c0.7-1.9,1.3-3.8,1.8-5.7l1.2-4.8c1.6-0.1,3.3,0.1,4.9,0.5
	C121.4,41.9,122.1,42.5,122.6,43.2z"/>
<path d="M141.5,35.4c-3.2,0-6,1.9-8.3,5.7c-2,3-3,6.5-3.1,10.1c-0.1,1.3,0.2,2.6,0.9,3.6c0.6,0.8,1.6,1.2,2.6,1.1
	c2.8,0,6.1-1.8,9.9-5.5l-0.8-1c-1.4,1.1-3,2.1-4.6,3c-0.7,0.3-1.4,0.5-2.1,0.5c-0.6,0-1.2-0.2-1.6-0.7c-0.4-0.7-0.6-1.5-0.5-2.3
	c0-0.8,0.1-1.6,0.2-2.4c3-1.4,5-2.3,5.9-2.8c1.5-0.8,2.8-1.8,3.8-3.1c0.7-0.9,1-1.9,1.1-3c0-0.9-0.3-1.7-0.9-2.3
	C143.4,35.7,142.4,35.4,141.5,35.4z M140.2,42.3c-1.7,1.6-3.6,2.8-5.7,3.7c0.3-1.8,0.8-3.6,1.5-5.3c0.4-1,1-1.9,1.9-2.7
	c0.5-0.4,1.1-0.6,1.7-0.7c0.5,0,1,0.2,1.4,0.6c0.4,0.5,0.6,1,0.5,1.6C141.5,40.6,141,41.6,140.2,42.3z"/>
<path d="M162,52.4c-0.4,0.3-0.8,0.4-1.2,0.5c-0.4,0-0.6-0.3-0.6-0.7c0.1-1.1,0.3-2.2,0.5-3.3c0.6-3.1,1.3-5.8,2-8.2l1.8-6L163,35
	l-0.6,0.9c-0.5-0.1-1-0.1-1.5-0.1c-1.7-0.1-3.4,0.2-4.9,0.9c-1.8,0.9-3.4,2.2-4.7,3.7c-1.5,1.7-2.7,3.5-3.6,5.6
	c-0.8,1.8-1.3,3.7-1.3,5.6c-0.1,1.2,0.3,2.4,1,3.4c0.5,0.7,1.3,1,2.1,1c1.1-0.1,2.2-0.4,3.2-1.1c1.8-1.1,3.5-2.5,4.9-4.2l-0.9,3.2
	c-0.1,0.3-0.2,0.7-0.2,1c0,0.3,0.1,0.6,0.3,0.8c0.3,0.2,0.6,0.3,0.9,0.3c0.6,0,1.2-0.2,1.8-0.4c1-0.4,2-0.9,2.8-1.5
	c0.5-0.4,1.7-1.4,3.5-3l-0.8-0.9C164,51.1,163.1,51.8,162,52.4z M158,46c-0.4,1.9-1.4,3.7-2.7,5.1c-0.9,1-2.2,1.6-3.5,1.8
	c-0.6,0-1.1-0.2-1.4-0.7c-0.4-0.7-0.6-1.5-0.6-2.3c0-2.1,0.5-4.2,1.4-6.1c0.6-1.6,1.7-3.1,3-4.2c1.1-0.8,2.4-1.2,3.7-1.2
	c0.7,0,1.4,0.1,2.2,0.3L158,46z"/>
<path d="M184,53.1c-0.3,0.2-0.6,0.3-0.9,0.4c-0.2,0-0.4-0.1-0.5-0.2c-0.2-0.2-0.2-0.4-0.2-0.7c0.5-2.8,1.2-5.5,2-8.2l2.2-8.3h-3.4
	l-2.6,9.7c-0.5,1.9-1.7,3.7-3.2,5c-1.6,1.5-2.9,2.2-3.8,2.2c-0.3,0-0.5-0.1-0.7-0.3c-0.2-0.2-0.3-0.5-0.3-0.9
	c0.4-2.2,0.9-4.4,1.5-6.6c0.8-2.6,1.4-5.3,1.7-8c0-0.5-0.1-0.9-0.4-1.3c-0.2-0.3-0.6-0.4-0.9-0.4c-0.9,0.1-1.9,0.4-2.7,0.9
	c-1.7,1.1-3.4,2.3-4.8,3.7l1,0.8c0.8-0.8,1.6-1.5,2.5-2.1c0.3-0.2,0.7-0.4,1.2-0.4c0.3,0,0.5,0.2,0.5,0.7c-0.3,2.3-0.9,4.6-1.6,6.8
	c-0.8,3-1.4,5-1.6,6c-0.1,0.7-0.2,1.3-0.2,2c-0.1,0.6,0.1,1.2,0.5,1.7c0.3,0.4,0.8,0.6,1.3,0.5c1.3-0.1,2.5-0.5,3.6-1.2
	c2-1.1,3.7-2.5,5.2-4.2c-0.3,1.1-0.5,2.2-0.5,3.3c0,0.6,0.2,1.2,0.5,1.7c0.3,0.4,0.8,0.6,1.3,0.6c1.5,0,3.8-1.7,7-5l-0.8-0.9
	C186,51.4,185,52.3,184,53.1z"/>
<path d="M201.8,49.3c-1.2,1-2.5,1.9-3.8,2.6c-0.7,0.5-1.4,0.8-2.3,0.9c-0.3,0-0.5-0.1-0.8-0.3c-0.2-0.3-0.3-0.6-0.3-0.9
	c0.1-1.7,0.5-3.4,1-5l2.1-7.9h4.9l0.4-1.7h-4.9l1.7-6.6l-3.8,1.4l-1.3,5.2H191l-0.4,1.7h3.8l-2.4,9.4c-0.5,1.7-0.8,3.4-0.9,5.2
	c-0.1,0.7,0.1,1.5,0.5,2.1c0.3,0.4,0.8,0.7,1.4,0.6c1-0.1,2-0.4,2.8-0.9c2.4-1.4,4.7-3,6.9-4.8L201.8,49.3z"/>
<path d="M222.5,36c-0.3-0.4-0.8-0.7-1.3-0.6c-0.4,0-0.8,0.2-1.1,0.5c-0.3,0.3-0.5,0.7-0.4,1.1c0.1,0.8,0.2,1.6,0.4,2.4
	c0.2,0.8,0.4,1.6,0.4,2.4c0,2.9-1.3,6.8-4,11.7c0-0.7,0-1.3,0-1.7c0-2.9-0.5-5.9-1.4-8.6c-0.7-2.5-1.9-4.9-3.5-7.1
	c-0.2-0.3-0.6-0.6-1-0.6c-0.4,0-0.8,0.1-1.1,0.3c-1.2,0.7-2.4,1.4-3.6,2.2l-1.6,1.2l0.8,1.1c0.9-0.8,2.1-1.4,3.3-1.6
	c0.8,0.1,1.5,0.6,1.9,1.3c1.4,2.1,2.3,4.5,2.7,7c0.6,2.6,0.9,5.2,1,7.9c0,1.6-0.5,3.2-1.3,4.6c-0.9,1.6-2.1,2.9-3.5,4
	c-0.9,0.7-1.9,1.1-3.1,1.2c-0.7-0.1-1.3-0.2-2-0.3c-0.7-0.2-1.5-0.3-2.2-0.3c-0.6,0-1.2,0.1-1.7,0.5c-0.4,0.3-0.6,0.7-0.6,1.2
	c0,0.6,0.3,1.1,0.8,1.4c0.7,0.4,1.5,0.6,2.4,0.6c1.5,0,3-0.4,4.4-1.1c1.8-0.9,3.4-2.2,4.8-3.7c2.1-2.4,3.9-5,5.4-7.8
	c1.8-3.1,3.3-6.4,4.4-9.8c0.8-2.5,1.3-5,1.4-7.6C223,37.2,222.8,36.5,222.5,36z"/>
<path class="st1" d="M96.7,23.5c-3,0.9-6.1,1.5-9.2,1.8c0.4-1.1,0.7-6.7,0-13.8c-19,0.3-24.3,10.9-29.1,18.7
	c-8.6-19.4-24.9-18.7-29.8-18.7c-0.7,3.5,0.7,12.7,0.7,12.7c-3,0.5-6,0.5-9,0c-1.6,15.9,4.4,24,12.2,33.2
	c21.2,19.4,15.9,28.2,15.9,28.2c3.6-1,7.1-2.5,10.2-4.5c0,1,6,3.5,10.2,6.2c-3.9-11.9,13-27,21.5-36.5
	C99.8,36.5,96.7,23.5,96.7,23.5z M79.2,15.8c1.1,14.2-3.5,12.6-6.3,14.1c-2.7,1.4-13.2,9.9-13.2,9.9C63.5,19.3,76.2,18.8,79.2,15.8z
	 M37.4,15.8c3,2.9,15.7,3.5,19.5,23.9c0,0-10.5-8.5-13.2-9.9C41,28.4,36.4,29.9,37.4,15.8z M52.3,81c2.1-6-4.2-14.8-14.1-27.1
	c-9.9-12.4-7.8-19.4-6.7-24c0.3,6,16.2,27.9,22.6,36C61.4,78.2,52.3,81,52.3,81z M58.6,65.8c-1.4-9.5-18-32.8-18-32.8
	c6.3,3.2,14.5,9.5,18.7,16.3C62.8,40.8,71.6,36.5,78,33C72.7,36.2,60.3,58.8,58.6,65.8z M79.5,53.8C69.6,66.2,63.3,75,65.4,81
	c0,0-9.2-2.8-1.8-15.1c6.4-8.1,22.2-30,22.6-36C87.2,34.4,89.4,41.5,79.5,53.8z"/>
</svg>
